<svg width="36" height="36" viewBox="0 0 36 36" fill="none" xmlns="http://www.w3.org/2000/svg">
<g clip-path="url(#clip0_2010_5687)">
<path d="M7.5 9C7.5 9.0383 7.51533 9.25436 7.93813 9.62921C8.35918 10.0025 9.05402 10.4072 10.0414 10.7775C12.0051 11.5139 14.8185 12 18 12C21.1815 12 23.9949 11.5139 25.9586 10.7775C26.946 10.4072 27.6408 10.0025 28.0619 9.62921C28.4847 9.25436 28.5 9.0383 28.5 9C28.5 8.9617 28.4847 8.74564 28.0619 8.37079C27.6408 7.99748 26.946 7.59278 25.9586 7.22251C23.9949 6.48613 21.1815 6 18 6C14.8185 6 12.0051 6.48613 10.0414 7.22251C9.05402 7.59278 8.35918 7.99748 7.93813 8.37079C7.51533 8.74564 7.5 8.9617 7.5 9ZM4.5 9C4.5 7.79566 5.15624 6.8279 5.94791 6.12601C6.74133 5.42256 7.80384 4.8576 8.98803 4.41353C11.3675 3.52123 14.554 3 18 3C21.446 3 24.6325 3.52123 27.012 4.41353C28.1962 4.8576 29.2587 5.42256 30.0521 6.12601C30.8438 6.8279 31.5 7.79566 31.5 9V15V21V27C31.5 28.2043 30.8438 29.1721 30.0521 29.874C29.2587 30.5774 28.1962 31.1424 27.012 31.5865C24.6325 32.4788 21.446 33 18 33C14.554 33 11.3675 32.4788 8.98803 31.5865C7.80384 31.1424 6.74133 30.5774 5.94791 29.874C5.15624 29.1721 4.5 28.2043 4.5 27V21V15V9ZM7.5 15C7.5 15.0383 7.51533 15.2544 7.93813 15.6292C8.35918 16.0025 9.05402 16.4072 10.0414 16.7775C12.0051 17.5139 14.8185 18 18 18C21.1815 18 23.9949 17.5139 25.9586 16.7775C26.946 16.4072 27.6408 16.0025 28.0619 15.6292C28.4847 15.2544 28.5 15.0383 28.5 15V12.9243C28.0363 13.1697 27.5361 13.3899 27.012 13.5865C24.6325 14.4788 21.446 15 18 15C14.554 15 11.3675 14.4788 8.98803 13.5865C8.46393 13.3899 7.96366 13.1697 7.5 12.9243V15ZM7.5 18.9243V21C7.5 21.0383 7.51533 21.2544 7.93813 21.6292C8.35918 22.0025 9.05402 22.4072 10.0414 22.7775C12.0051 23.5139 14.8185 24 18 24C21.1815 24 23.9949 23.5139 25.9586 22.7775C26.946 22.4072 27.6408 22.0025 28.0619 21.6292C28.4847 21.2544 28.5 21.0383 28.5 21V18.9243C28.0363 19.1697 27.5361 19.3899 27.012 19.5865C24.6325 20.4788 21.446 21 18 21C14.554 21 11.3675 20.4788 8.98803 19.5865C8.46393 19.3899 7.96366 19.1697 7.5 18.9243ZM7.5 24.9243V27C7.5 27.0383 7.51533 27.2544 7.93813 27.6292C8.35918 28.0025 9.05402 28.4072 10.0414 28.7775C12.0051 29.5139 14.8185 30 18 30C21.1815 30 23.9949 29.5139 25.9586 28.7775C26.946 28.4072 27.6408 28.0025 28.0619 27.6292C28.4847 27.2544 28.5 27.0383 28.5 27V24.9243C28.0363 25.1697 27.5361 25.3899 27.012 25.5865C24.6325 26.4788 21.446 27 18 27C14.554 27 11.3675 26.4788 8.98803 25.5865C8.46393 25.3899 7.96366 25.1697 7.5 24.9243Z" fill="#4D4D4D"/>
</g>
<defs>
<clipPath id="clip0_2010_5687">
<rect width="36" height="36" fill="white"/>
</clipPath>
</defs>
</svg>
