<svg width="36" height="36" viewBox="0 0 36 36" fill="none" xmlns="http://www.w3.org/2000/svg">
<g clip-path="url(#clip0_2010_4890)">
<path d="M19.5001 27V30H25.5001V33H10.5001V30H16.5001V27H4.48806C4.29109 26.9988 4.09629 26.9588 3.91482 26.8822C3.73335 26.8056 3.56878 26.6939 3.43055 26.5536C3.29231 26.4133 3.18313 26.247 3.10926 26.0644C3.03539 25.8818 2.99828 25.6865 3.00006 25.4895V6.0105C3.00006 5.1765 3.68256 4.5 4.48806 4.5H31.5121C32.3341 4.5 33.0001 5.1735 33.0001 6.0105V25.4895C33.0001 26.3235 32.3176 27 31.5121 27H19.5001Z" fill="#4D4D4D"/>
<rect width="24" height="16.5" transform="translate(6 7.5)" fill="white"/>
</g>
<defs>
<clipPath id="clip0_2010_4890">
<rect width="36" height="36" fill="white"/>
</clipPath>
</defs>
</svg>
